<svg xmlns="http://www.w3.org/2000/svg" viewBox="0 0 109 113" fill="none"><path d="M63.7076 110.284C60.8481 113.885 55.0502 111.932 54.9813 107.394L53.9738 41.1067H99.1935C107.28 41.1067 111.952 50.5176 106.849 57.0588L63.7076 110.284Z" fill="url(#sb_a)"/><path d="M63.7076 110.284C60.8481 113.885 55.0502 111.932 54.9813 107.394L53.9738 41.1067H99.1935C107.28 41.1067 111.952 50.5176 106.849 57.0588L63.7076 110.284Z" fill="url(#sb_b)" fill-opacity=".2"/><path d="M45.317 2.07103C48.1765-1.53037 53.9745.422633 54.0434 4.96085L54.4849 71.2481H9.83113C1.74438 71.2481-2.92769 61.8372 2.1756 55.296L45.317 2.07103Z" fill="#3ECF8E"/><defs><linearGradient id="sb_a" x1="53.9738" y1="54.974" x2="94.1635" y2="71.8295" gradientUnits="userSpaceOnUse"><stop stop-color="#249361"/><stop offset="1" stop-color="#3ECF8E"/></linearGradient><linearGradient id="sb_b" x1="36.1558" y1="30.578" x2="54.4844" y2="65.0806" gradientUnits="userSpaceOnUse"><stop/><stop offset="1" stop-opacity="0"/></linearGradient></defs></svg>
